<svg width="255" height="74" viewBox="0 0 255 74" fill="none" xmlns="http://www.w3.org/2000/svg">
    <path d="M7.4 13.1C7.6 13.3 7.80001 13.4 8.10001 13.4C8.70001 13.4 9.10001 12.9 9.10001 12.4C9.10001 12.1 9 11.8 8.8 11.7L5.5 8.7L8.8 5.7C9 5.5 9.10001 5.2 9.10001 5C9.10001 4.4 8.60001 4 8.10001 4C7.80001 4 7.6 4.1 7.4 4.3L3.3 8C3.1 8.2 3 8.5 3 8.8C3 9.1 3.1 9.4 3.3 9.6L7.4 13.1Z" fill="#FFBB00"/>
    <path d="M142.7 7C145.3 7 147.5 8.7 148.4 11H171.8V15H148.4C147.6 17.3 145.4 19 142.7 19C139.4 19 136.7 16.3 136.7 13C136.7 9.7 139.4 7 142.7 7Z" fill="#FFBB00"/>
    <path d="M186.5 0C193.7 0 199.8 4.6 202.1 11H224C224.8 8.7 227 7 229.7 7C233 7 235.7 9.7 235.7 13C235.7 16.3 233 19 229.7 19C227.1 19 224.9 17.3 224 15H203H171.2H170C170.8 6.6 177.9 0 186.5 0Z" fill="#1B171B"/>
    <path d="M253 3.5H207V6.4H253V3.5Z" fill="#B8B8B9"/>
    <path d="M166.5 3.5H120.5V6.4H166.5V3.5Z" fill="#B8B8B9"/>
    <path d="M114.9 9H110.957" stroke="#FFBB00" stroke-width="2" stroke-linecap="round" stroke-linejoin="round"/>
    <path d="M104 9L11 9" stroke="#FFBB00" stroke-width="2" stroke-linecap="round" stroke-linejoin="round" stroke-dasharray="7.41 7.41"/>
    <path d="M0 73.5H255" stroke="#1B171B" stroke-miterlimit="10"/>
    <path d="M123.145 42V32.5455H128.814V33.5611H124.29V36.7557H128.389V37.7713H124.29V42H123.145ZM131.717 32.5455V42H130.627V32.5455H131.717ZM134.414 44.6591C134.229 44.6591 134.064 44.6437 133.92 44.6129C133.775 44.5852 133.675 44.5575 133.62 44.5298L133.897 43.5696C134.161 43.6373 134.395 43.6619 134.598 43.6435C134.801 43.625 134.982 43.5342 135.138 43.3711C135.299 43.2111 135.445 42.951 135.577 42.5909L135.78 42.0369L133.158 34.9091H134.34L136.297 40.5597H136.371L138.328 34.9091H139.51L136.5 43.0341C136.365 43.4003 136.197 43.7035 135.997 43.9435C135.797 44.1867 135.565 44.3667 135.3 44.4837C135.038 44.6006 134.743 44.6591 134.414 44.6591ZM144.605 42V34.9091H145.694V42H144.605ZM145.159 33.7273C144.946 33.7273 144.763 33.6549 144.609 33.5103C144.458 33.3656 144.383 33.1918 144.383 32.9886C144.383 32.7855 144.458 32.6116 144.609 32.467C144.763 32.3223 144.946 32.25 145.159 32.25C145.371 32.25 145.552 32.3223 145.703 32.467C145.857 32.6116 145.934 32.7855 145.934 32.9886C145.934 33.1918 145.857 33.3656 145.703 33.5103C145.552 33.6549 145.371 33.7273 145.159 33.7273ZM148.779 37.7344V42H147.69V34.9091H148.742V36.017H148.834C149.001 35.657 149.253 35.3677 149.592 35.1491C149.93 34.9276 150.367 34.8168 150.903 34.8168C151.383 34.8168 151.803 34.9152 152.163 35.1122C152.523 35.3061 152.803 35.6016 153.003 35.9986C153.203 36.3925 153.303 36.8911 153.303 37.4943V42H152.214V37.5682C152.214 37.0111 152.069 36.5772 151.78 36.2663C151.49 35.9524 151.093 35.7955 150.589 35.7955C150.241 35.7955 149.93 35.8709 149.656 36.0217C149.385 36.1725 149.171 36.3925 149.014 36.6818C148.858 36.9711 148.779 37.322 148.779 37.7344ZM122.997 60.6591V50.9091H124.05V52.0355H124.179C124.259 51.9124 124.37 51.7554 124.511 51.5646C124.656 51.3707 124.862 51.1984 125.13 51.0476C125.401 50.8937 125.767 50.8168 126.229 50.8168C126.826 50.8168 127.352 50.966 127.808 51.2646C128.263 51.5631 128.618 51.9863 128.874 52.5341C129.129 53.0819 129.257 53.7282 129.257 54.473C129.257 55.224 129.129 55.8749 128.874 56.4258C128.618 56.9736 128.265 57.3983 127.812 57.6999C127.36 57.9985 126.838 58.1477 126.247 58.1477C125.792 58.1477 125.427 58.0723 125.153 57.9215C124.879 57.7676 124.668 57.5937 124.521 57.3999C124.373 57.2029 124.259 57.0398 124.179 56.9105H124.087V60.6591H122.997ZM124.068 54.4545C124.068 54.9901 124.147 55.4625 124.304 55.8718C124.461 56.2781 124.69 56.5966 124.991 56.8274C125.293 57.0552 125.662 57.169 126.099 57.169C126.555 57.169 126.935 57.049 127.24 56.8089C127.547 56.5658 127.778 56.2396 127.932 55.8303C128.089 55.4179 128.168 54.9593 128.168 54.4545C128.168 53.956 128.091 53.5066 127.937 53.1065C127.786 52.7034 127.557 52.3848 127.249 52.1509C126.944 51.9139 126.561 51.7955 126.099 51.7955C125.656 51.7955 125.284 51.9078 124.982 52.1325C124.681 52.354 124.453 52.6649 124.299 53.065C124.145 53.462 124.068 53.9252 124.068 54.4545ZM130.919 58V50.9091H131.972V51.9801H132.045C132.175 51.6293 132.409 51.3446 132.747 51.1261C133.086 50.9076 133.467 50.7983 133.892 50.7983C133.972 50.7983 134.072 50.7998 134.192 50.8029C134.312 50.806 134.403 50.8106 134.464 50.8168V51.9247C134.428 51.9155 134.343 51.9016 134.211 51.8832C134.081 51.8616 133.944 51.8509 133.8 51.8509C133.455 51.8509 133.147 51.9232 132.876 52.0678C132.609 52.2094 132.396 52.4064 132.239 52.6587C132.085 52.908 132.009 53.1927 132.009 53.5128V58H130.919ZM138.513 58.1477C137.83 58.1477 137.241 57.9969 136.745 57.6953C136.253 57.3906 135.873 56.9659 135.605 56.4212C135.34 55.8733 135.208 55.2363 135.208 54.5099C135.208 53.7836 135.34 53.1435 135.605 52.5895C135.873 52.0324 136.245 51.5985 136.722 51.2876C137.202 50.9737 137.762 50.8168 138.402 50.8168C138.772 50.8168 139.136 50.8783 139.496 51.0014C139.857 51.1245 140.184 51.3246 140.48 51.6016C140.775 51.8755 141.011 52.2386 141.186 52.6911C141.362 53.1435 141.449 53.7005 141.449 54.3622V54.8239H135.983V53.8821H140.341C140.341 53.482 140.261 53.125 140.101 52.8111C139.944 52.4972 139.72 52.2494 139.427 52.0678C139.138 51.8862 138.796 51.7955 138.402 51.7955C137.968 51.7955 137.593 51.9032 137.276 52.1186C136.962 52.331 136.72 52.608 136.551 52.9496C136.382 53.2912 136.297 53.6574 136.297 54.0483V54.6761C136.297 55.2116 136.39 55.6656 136.574 56.038C136.762 56.4073 137.022 56.6889 137.354 56.8828C137.687 57.0736 138.073 57.169 138.513 57.169C138.799 57.169 139.058 57.129 139.289 57.049C139.523 56.9659 139.724 56.8428 139.893 56.6797C140.063 56.5135 140.194 56.3073 140.286 56.0611L141.338 56.3565C141.228 56.7135 141.041 57.0275 140.78 57.2983C140.518 57.5661 140.195 57.7753 139.81 57.9261C139.426 58.0739 138.993 58.1477 138.513 58.1477ZM145.784 58.1477C145.193 58.1477 144.672 57.9985 144.219 57.6999C143.767 57.3983 143.413 56.9736 143.157 56.4258C142.902 55.8749 142.774 55.224 142.774 54.473C142.774 53.7282 142.902 53.0819 143.157 52.5341C143.413 51.9863 143.768 51.5631 144.224 51.2646C144.679 50.966 145.205 50.8168 145.803 50.8168C146.264 50.8168 146.629 50.8937 146.897 51.0476C147.167 51.1984 147.374 51.3707 147.515 51.5646C147.66 51.7554 147.772 51.9124 147.852 52.0355H147.945V48.5455H149.034V58H147.982V56.9105H147.852C147.772 57.0398 147.658 57.2029 147.511 57.3999C147.363 57.5937 147.152 57.7676 146.878 57.9215C146.604 58.0723 146.24 58.1477 145.784 58.1477ZM145.932 57.169C146.369 57.169 146.738 57.0552 147.04 56.8274C147.341 56.5966 147.571 56.2781 147.728 55.8718C147.885 55.4625 147.963 54.9901 147.963 54.4545C147.963 53.9252 147.886 53.462 147.732 53.065C147.578 52.6649 147.351 52.354 147.049 52.1325C146.747 51.9078 146.375 51.7955 145.932 51.7955C145.47 51.7955 145.085 51.9139 144.778 52.1509C144.473 52.3848 144.244 52.7034 144.09 53.1065C143.939 53.5066 143.864 53.956 143.864 54.4545C143.864 54.9593 143.941 55.4179 144.094 55.8303C144.251 56.2396 144.482 56.5658 144.787 56.8089C145.095 57.049 145.476 57.169 145.932 57.169ZM154.154 58.1477C153.471 58.1477 152.881 57.9969 152.386 57.6953C151.893 57.3906 151.513 56.9659 151.245 56.4212C150.981 55.8733 150.848 55.2363 150.848 54.5099C150.848 53.7836 150.981 53.1435 151.245 52.5895C151.513 52.0324 151.886 51.5985 152.363 51.2876C152.843 50.9737 153.403 50.8168 154.043 50.8168C154.412 50.8168 154.777 50.8783 155.137 51.0014C155.497 51.1245 155.825 51.3246 156.12 51.6016C156.416 51.8755 156.651 52.2386 156.827 52.6911C157.002 53.1435 157.09 53.7005 157.09 54.3622V54.8239H151.624V53.8821H155.982C155.982 53.482 155.902 53.125 155.742 52.8111C155.585 52.4972 155.36 52.2494 155.068 52.0678C154.779 51.8862 154.437 51.7955 154.043 51.7955C153.609 51.7955 153.234 51.9032 152.917 52.1186C152.603 52.331 152.361 52.608 152.192 52.9496C152.022 53.2912 151.938 53.6574 151.938 54.0483V54.6761C151.938 55.2116 152.03 55.6656 152.215 56.038C152.403 56.4073 152.663 56.6889 152.995 56.8828C153.327 57.0736 153.714 57.169 154.154 57.169C154.44 57.169 154.699 57.129 154.929 57.049C155.163 56.9659 155.365 56.8428 155.534 56.6797C155.703 56.5135 155.834 56.3073 155.926 56.0611L156.979 56.3565C156.868 56.7135 156.682 57.0275 156.42 57.2983C156.159 57.5661 155.836 57.7753 155.451 57.9261C155.066 58.0739 154.634 58.1477 154.154 58.1477ZM161.905 50.9091V51.8324H158.082V50.9091H161.905ZM159.227 58V49.9304C159.227 49.5241 159.323 49.1856 159.513 48.9148C159.704 48.6439 159.952 48.4408 160.257 48.3054C160.561 48.17 160.883 48.1023 161.222 48.1023C161.489 48.1023 161.708 48.1238 161.877 48.1669C162.046 48.21 162.173 48.25 162.256 48.2869L161.942 49.2287C161.886 49.2102 161.809 49.1871 161.711 49.1594C161.616 49.1317 161.489 49.1179 161.332 49.1179C160.972 49.1179 160.712 49.2087 160.552 49.3903C160.395 49.5719 160.317 49.8381 160.317 50.1889V58H159.227ZM163.432 58V50.9091H164.521V58H163.432ZM163.986 49.7273C163.773 49.7273 163.59 49.6549 163.436 49.5103C163.286 49.3656 163.21 49.1918 163.21 48.9886C163.21 48.7855 163.286 48.6116 163.436 48.467C163.59 48.3223 163.773 48.25 163.986 48.25C164.198 48.25 164.38 48.3223 164.53 48.467C164.684 48.6116 164.761 48.7855 164.761 48.9886C164.761 49.1918 164.684 49.3656 164.53 49.5103C164.38 49.6549 164.198 49.7273 163.986 49.7273ZM167.606 53.7344V58H166.517V50.9091H167.569V52.017H167.662C167.828 51.657 168.08 51.3677 168.419 51.1491C168.757 50.9276 169.194 50.8168 169.73 50.8168C170.21 50.8168 170.63 50.9152 170.99 51.1122C171.35 51.3061 171.63 51.6016 171.83 51.9986C172.03 52.3925 172.13 52.8911 172.13 53.4943V58H171.041V53.5682C171.041 53.0111 170.896 52.5772 170.607 52.2663C170.318 51.9524 169.921 51.7955 169.416 51.7955C169.068 51.7955 168.757 51.8709 168.483 52.0217C168.212 52.1725 167.999 52.3925 167.842 52.6818C167.685 52.9711 167.606 53.322 167.606 53.7344ZM177.094 58.1477C176.411 58.1477 175.822 57.9969 175.326 57.6953C174.834 57.3906 174.454 56.9659 174.186 56.4212C173.921 55.8733 173.789 55.2363 173.789 54.5099C173.789 53.7836 173.921 53.1435 174.186 52.5895C174.454 52.0324 174.826 51.5985 175.303 51.2876C175.783 50.9737 176.343 50.8168 176.983 50.8168C177.353 50.8168 177.717 50.8783 178.078 51.0014C178.438 51.1245 178.765 51.3246 179.061 51.6016C179.356 51.8755 179.592 52.2386 179.767 52.6911C179.943 53.1435 180.03 53.7005 180.03 54.3622V54.8239H174.564V53.8821H178.922C178.922 53.482 178.842 53.125 178.682 52.8111C178.525 52.4972 178.301 52.2494 178.008 52.0678C177.719 51.8862 177.377 51.7955 176.983 51.7955C176.549 51.7955 176.174 51.9032 175.857 52.1186C175.543 52.331 175.301 52.608 175.132 52.9496C174.963 53.2912 174.878 53.6574 174.878 54.0483V54.6761C174.878 55.2116 174.971 55.6656 175.155 56.038C175.343 56.4073 175.603 56.6889 175.935 56.8828C176.268 57.0736 176.654 57.169 177.094 57.169C177.38 57.169 177.639 57.129 177.87 57.049C178.104 56.9659 178.305 56.8428 178.475 56.6797C178.644 56.5135 178.775 56.3073 178.867 56.0611L179.919 56.3565C179.809 56.7135 179.622 57.0275 179.361 57.2983C179.099 57.5661 178.776 57.7753 178.391 57.9261C178.007 58.0739 177.574 58.1477 177.094 58.1477ZM184.365 58.1477C183.774 58.1477 183.253 57.9985 182.8 57.6999C182.348 57.3983 181.994 56.9736 181.738 56.4258C181.483 55.8749 181.355 55.224 181.355 54.473C181.355 53.7282 181.483 53.0819 181.738 52.5341C181.994 51.9863 182.349 51.5631 182.805 51.2646C183.26 50.966 183.787 50.8168 184.384 50.8168C184.845 50.8168 185.21 50.8937 185.478 51.0476C185.749 51.1984 185.955 51.3707 186.096 51.5646C186.241 51.7554 186.353 51.9124 186.433 52.0355H186.526V48.5455H187.615V58H186.563V56.9105H186.433C186.353 57.0398 186.239 57.2029 186.092 57.3999C185.944 57.5937 185.733 57.7676 185.459 57.9215C185.185 58.0723 184.821 58.1477 184.365 58.1477ZM184.513 57.169C184.95 57.169 185.319 57.0552 185.621 56.8274C185.922 56.5966 186.152 56.2781 186.309 55.8718C186.466 55.4625 186.544 54.9901 186.544 54.4545C186.544 53.9252 186.467 53.462 186.313 53.065C186.159 52.6649 185.932 52.354 185.63 52.1325C185.328 51.9078 184.956 51.7955 184.513 51.7955C184.051 51.7955 183.667 51.9139 183.359 52.1509C183.054 52.3848 182.825 52.7034 182.671 53.1065C182.52 53.5066 182.445 53.956 182.445 54.4545C182.445 54.9593 182.522 55.4179 182.676 55.8303C182.832 56.2396 183.063 56.5658 183.368 56.8089C183.676 57.049 184.057 57.169 184.513 57.169ZM196.096 58.1477C195.505 58.1477 194.983 57.9985 194.531 57.6999C194.078 57.3983 193.724 56.9736 193.469 56.4258C193.213 55.8749 193.086 55.224 193.086 54.473C193.086 53.7282 193.213 53.0819 193.469 52.5341C193.724 51.9863 194.08 51.5631 194.535 51.2646C194.991 50.966 195.517 50.8168 196.114 50.8168C196.576 50.8168 196.94 50.8937 197.208 51.0476C197.479 51.1984 197.685 51.3707 197.827 51.5646C197.971 51.7554 198.084 51.9124 198.164 52.0355H198.256V48.5455H199.346V58H198.293V56.9105H198.164C198.084 57.0398 197.97 57.2029 197.822 57.3999C197.674 57.5937 197.464 57.7676 197.19 57.9215C196.916 58.0723 196.551 58.1477 196.096 58.1477ZM196.243 57.169C196.68 57.169 197.05 57.0552 197.351 56.8274C197.653 56.5966 197.882 56.2781 198.039 55.8718C198.196 55.4625 198.275 54.9901 198.275 54.4545C198.275 53.9252 198.198 53.462 198.044 53.065C197.89 52.6649 197.662 52.354 197.361 52.1325C197.059 51.9078 196.687 51.7955 196.243 51.7955C195.782 51.7955 195.397 51.9139 195.089 52.1509C194.785 52.3848 194.555 52.7034 194.401 53.1065C194.251 53.5066 194.175 53.956 194.175 54.4545C194.175 54.9593 194.252 55.4179 194.406 55.8303C194.563 56.2396 194.794 56.5658 195.098 56.8089C195.406 57.049 195.788 57.169 196.243 57.169ZM201.492 58V50.9091H202.582V58H201.492ZM202.046 49.7273C201.834 49.7273 201.651 49.6549 201.497 49.5103C201.346 49.3656 201.271 49.1918 201.271 48.9886C201.271 48.7855 201.346 48.6116 201.497 48.467C201.651 48.3223 201.834 48.25 202.046 48.25C202.259 48.25 202.44 48.3223 202.591 48.467C202.745 48.6116 202.822 48.7855 202.822 48.9886C202.822 49.1918 202.745 49.3656 202.591 49.5103C202.44 49.6549 202.259 49.7273 202.046 49.7273ZM204.577 58V50.9091H205.63V51.9801H205.704C205.833 51.6293 206.067 51.3446 206.405 51.1261C206.744 50.9076 207.126 50.7983 207.55 50.7983C207.63 50.7983 207.73 50.7998 207.85 50.8029C207.97 50.806 208.061 50.8106 208.123 50.8168V51.9247C208.086 51.9155 208.001 51.9016 207.869 51.8832C207.74 51.8616 207.603 51.8509 207.458 51.8509C207.113 51.8509 206.805 51.9232 206.535 52.0678C206.267 52.2094 206.055 52.4064 205.898 52.6587C205.744 52.908 205.667 53.1927 205.667 53.5128V58H204.577ZM212.171 58.1477C211.488 58.1477 210.899 57.9969 210.403 57.6953C209.911 57.3906 209.531 56.9659 209.263 56.4212C208.998 55.8733 208.866 55.2363 208.866 54.5099C208.866 53.7836 208.998 53.1435 209.263 52.5895C209.531 52.0324 209.903 51.5985 210.38 51.2876C210.86 50.9737 211.42 50.8168 212.061 50.8168C212.43 50.8168 212.795 50.8783 213.155 51.0014C213.515 51.1245 213.843 51.3246 214.138 51.6016C214.433 51.8755 214.669 52.2386 214.844 52.6911C215.02 53.1435 215.107 53.7005 215.107 54.3622V54.8239H209.642V53.8821H213.999C213.999 53.482 213.919 53.125 213.759 52.8111C213.602 52.4972 213.378 52.2494 213.085 52.0678C212.796 51.8862 212.454 51.7955 212.061 51.7955C211.627 51.7955 211.251 51.9032 210.934 52.1186C210.62 52.331 210.379 52.608 210.209 52.9496C210.04 53.2912 209.955 53.6574 209.955 54.0483V54.6761C209.955 55.2116 210.048 55.6656 210.232 56.038C210.42 56.4073 210.68 56.6889 211.013 56.8828C211.345 57.0736 211.731 57.169 212.171 57.169C212.458 57.169 212.716 57.129 212.947 57.049C213.181 56.9659 213.382 56.8428 213.552 56.6797C213.721 56.5135 213.852 56.3073 213.944 56.0611L214.997 56.3565C214.886 56.7135 214.7 57.0275 214.438 57.2983C214.176 57.5661 213.853 57.7753 213.469 57.9261C213.084 58.0739 212.651 58.1477 212.171 58.1477ZM219.645 58.1477C218.981 58.1477 218.408 57.9908 217.928 57.6768C217.448 57.3629 217.079 56.9305 216.82 56.3796C216.562 55.8287 216.432 55.1993 216.432 54.4915C216.432 53.7713 216.565 53.1358 216.829 52.5849C217.097 52.0309 217.47 51.5985 217.947 51.2876C218.427 50.9737 218.987 50.8168 219.627 50.8168C220.126 50.8168 220.575 50.9091 220.975 51.0938C221.375 51.2784 221.703 51.5369 221.958 51.8693C222.214 52.2017 222.372 52.5895 222.434 53.0327H221.344C221.261 52.7095 221.077 52.4233 220.79 52.174C220.507 51.9216 220.126 51.7955 219.645 51.7955C219.221 51.7955 218.848 51.9062 218.528 52.1278C218.211 52.3464 217.963 52.6557 217.785 53.0558C217.61 53.4528 217.522 53.919 217.522 54.4545C217.522 55.0024 217.608 55.4794 217.78 55.8857C217.956 56.2919 218.202 56.6074 218.519 56.832C218.839 57.0567 219.215 57.169 219.645 57.169C219.929 57.169 220.186 57.1198 220.416 57.0213C220.647 56.9228 220.843 56.7812 221.003 56.5966C221.163 56.4119 221.277 56.1903 221.344 55.9318H222.434C222.372 56.3504 222.22 56.7274 221.977 57.0629C221.737 57.3952 221.418 57.6599 221.021 57.8569C220.627 58.0508 220.169 58.1477 219.645 58.1477ZM227.11 50.9091V51.8324H223.436V50.9091H227.11ZM224.507 49.2102H225.596V55.9688C225.596 56.2765 225.641 56.5073 225.73 56.6612C225.822 56.812 225.939 56.9136 226.081 56.9659C226.225 57.0152 226.378 57.0398 226.538 57.0398C226.658 57.0398 226.756 57.0336 226.833 57.0213C226.91 57.0059 226.972 56.9936 227.018 56.9844L227.24 57.9631C227.166 57.9908 227.063 58.0185 226.93 58.0462C226.798 58.0769 226.63 58.0923 226.427 58.0923C226.119 58.0923 225.818 58.0262 225.522 57.8938C225.23 57.7615 224.987 57.5599 224.793 57.2891C224.602 57.0182 224.507 56.6766 224.507 56.2642V49.2102ZM228.749 58V50.9091H229.839V58H228.749ZM229.303 49.7273C229.091 49.7273 228.908 49.6549 228.754 49.5103C228.603 49.3656 228.528 49.1918 228.528 48.9886C228.528 48.7855 228.603 48.6116 228.754 48.467C228.908 48.3223 229.091 48.25 229.303 48.25C229.515 48.25 229.697 48.3223 229.848 48.467C230.002 48.6116 230.079 48.7855 230.079 48.9886C230.079 49.1918 230.002 49.3656 229.848 49.5103C229.697 49.6549 229.515 49.7273 229.303 49.7273ZM234.715 58.1477C234.075 58.1477 233.513 57.9954 233.03 57.6907C232.55 57.386 232.174 56.9598 231.903 56.4119C231.636 55.8641 231.502 55.224 231.502 54.4915C231.502 53.7528 231.636 53.1081 231.903 52.5572C232.174 52.0063 232.55 51.5785 233.03 51.2738C233.513 50.9691 234.075 50.8168 234.715 50.8168C235.355 50.8168 235.915 50.9691 236.395 51.2738C236.878 51.5785 237.254 52.0063 237.522 52.5572C237.792 53.1081 237.928 53.7528 237.928 54.4915C237.928 55.224 237.792 55.8641 237.522 56.4119C237.254 56.9598 236.878 57.386 236.395 57.6907C235.915 57.9954 235.355 58.1477 234.715 58.1477ZM234.715 57.169C235.201 57.169 235.601 57.0444 235.915 56.7951C236.229 56.5458 236.461 56.218 236.612 55.8118C236.763 55.4055 236.838 54.9654 236.838 54.4915C236.838 54.0175 236.763 53.5759 236.612 53.1665C236.461 52.7572 236.229 52.4264 235.915 52.174C235.601 51.9216 235.201 51.7955 234.715 51.7955C234.228 51.7955 233.828 51.9216 233.514 52.174C233.201 52.4264 232.968 52.7572 232.817 53.1665C232.667 53.5759 232.591 54.0175 232.591 54.4915C232.591 54.9654 232.667 55.4055 232.817 55.8118C232.968 56.218 233.201 56.5458 233.514 56.7951C233.828 57.0444 234.228 57.169 234.715 57.169ZM240.68 53.7344V58H239.591V50.9091H240.643V52.017H240.736C240.902 51.657 241.154 51.3677 241.493 51.1491C241.831 50.9276 242.268 50.8168 242.804 50.8168C243.284 50.8168 243.704 50.9152 244.064 51.1122C244.424 51.3061 244.704 51.6016 244.904 51.9986C245.105 52.3925 245.205 52.8911 245.205 53.4943V58H244.115V53.5682C244.115 53.0111 243.97 52.5772 243.681 52.2663C243.392 51.9524 242.995 51.7955 242.49 51.7955C242.142 51.7955 241.831 51.8709 241.558 52.0217C241.287 52.1725 241.073 52.3925 240.916 52.6818C240.759 52.9711 240.68 53.322 240.68 53.7344Z" fill="black"/>
    <g clip-path="url(#clip0_1_123)">
        <path d="M26 23C14.972 23 6 31.972 6 43C6 54.028 14.972 63 26 63C37.028 63 46 54.028 46 43C46 31.972 37.028 23 26 23ZM26 60.1832C16.5251 60.1832 8.81684 52.4749 8.81684 43C8.81684 33.5251 16.5251 25.8168 26 25.8168C35.4749 25.8168 43.1832 33.5251 43.1832 43C43.1832 52.4749 35.4749 60.1832 26 60.1832Z" fill="black"/>
        <path d="M26 27.9296C17.6901 27.9296 10.9296 34.6901 10.9296 43C10.9296 51.3099 17.6901 58.0704 26 58.0704C34.3099 58.0704 41.0704 51.3099 41.0704 43C41.0704 34.6901 34.3099 27.9296 26 27.9296ZM27.4085 55.7391V55.0423C27.4085 54.2645 26.7779 53.6338 26 53.6338C25.2221 53.6338 24.5915 54.2645 24.5915 55.0423V55.7391C18.6473 55.0863 13.9135 50.3527 13.2609 44.4085H13.9577C14.7355 44.4085 15.3662 43.7779 15.3662 43C15.3662 42.2221 14.7356 41.5915 13.9577 41.5915H13.2609C13.9137 35.6473 18.6473 30.9135 24.5915 30.2609V30.8521C24.5915 31.6299 25.2221 32.2606 26 32.2606C26.7779 32.2606 27.4085 31.63 27.4085 30.8521V30.2609C33.3527 30.9137 38.0865 35.6473 38.7391 41.5915H38.1479C37.3701 41.5915 36.7394 42.2221 36.7394 43C36.7394 43.7779 37.3701 44.4085 38.1479 44.4085H38.7391C38.0863 50.3527 33.3527 55.0865 27.4085 55.7391Z" fill="black"/>
        <path d="M33.6955 34.1436L25.0442 39.3914C24.7789 39.4612 24.5228 39.56 24.28 39.6865L22.1488 37.5554C21.7087 37.1156 20.9954 37.1156 20.5553 37.5554C20.1153 37.9956 20.1153 38.7088 20.5553 39.149L22.6863 41.28C22.56 41.5228 22.4611 41.7786 22.3914 42.0439L17.1433 50.6958C16.9414 51.0284 16.993 51.4563 17.2683 51.7315C17.4311 51.8944 17.6475 51.979 17.866 51.979C18.0166 51.979 18.1682 51.9389 18.304 51.8564L26.9553 46.6088C27.2207 46.539 27.4769 46.44 27.7199 46.3135L29.8509 48.4446C30.071 48.6645 30.3593 48.7746 30.6477 48.7746C30.9362 48.7746 31.2244 48.6645 31.4444 48.4446C31.8844 48.0045 31.8844 47.2912 31.4444 46.8511L29.3134 44.72C29.44 44.4769 29.5389 44.2207 29.6088 43.955L34.856 35.3042C35.0579 34.9715 35.0063 34.5437 34.731 34.2686C34.456 33.9933 34.0283 33.9417 33.6955 34.1436ZM20.378 48.6218L22.7134 44.7717C22.8838 45.0866 23.1005 45.3787 23.3608 45.6391C23.621 45.8993 23.9131 46.1161 24.228 46.2865L20.378 48.6218ZM27.0457 44.0458C26.7663 44.3251 26.395 44.4789 26 44.4789C25.605 44.4789 25.2338 44.3251 24.9542 44.0457C24.6749 43.7663 24.5211 43.395 24.5211 43C24.5211 42.605 24.6749 42.2338 24.9542 41.9544L24.9543 41.9542C25.2337 41.6749 25.605 41.5211 26 41.5211C26.395 41.5211 26.7662 41.6749 27.0458 41.9544C27.3251 42.2337 27.4789 42.605 27.4789 43C27.4789 43.395 27.3251 43.7662 27.0457 44.0458ZM29.2863 41.2279C29.116 40.9131 28.8993 40.6212 28.6392 40.361C28.379 40.1006 28.0867 39.8838 27.7719 39.7134L31.6214 37.3782L29.2863 41.2279Z" fill="black"/>
    </g>
    <defs>
        <clipPath id="clip0_1_123">
            <rect width="40" height="40" fill="white" transform="translate(6 23)"/>
        </clipPath>
    </defs>
</svg>
